
<svg version="1.1" viewBox="0 0 1899 2048" width="1280" height="1280" xmlns="http://www.w3.org/2000/svg">
<path transform="translate(970,351)" d="m0 0 22 1 22 4 19 5 15 6 19 10 17 12 13 11 7 6 7 8 12 15 10 15 17 28 30 52 17 29 28 48 9 15 15 26 13 22 9 15 16 28 14 24 17 29 16 27 11 19 12 20 16 28 14 24 15 25 13 23 16 27 15 26 10 17 16 27 14 24 17 29 12 20 12 21 15 25 14 25 13 24 13 23 11 17 12 19 8 13 17 29 15 25 16 28 8 13 12 21 15 26 10 17 8 16 9 20 7 26 5 25v22l-8 38-7 20-9 20-14 21-11 14-9 10-9 9-13 10-15 9-14 8-18 8-17 5-31 6-13 1-27-1-27-5-19-6-12-5-17-9-17-10-24-13-25-15-23-13-18-10-24-14-29-16-27-16-24-13-23-13-24-14-18-10-28-16-19-11-25-14-24-14-19-10-25-10-24-7-14-3-10-1h-30l-12 2-36 11-25 10-46 26-25 14-24 14-21 12-25 14-24 14-29 16-46 26-26 15-24 14-22 12-27 16-27 15-24 13-25 12-21 7-25 5-14 1h-18l-21-2-15-4-24-8-20-10-18-12-14-11-15-14-12-14-14-21-12-23-6-15-9-35-1-7v-25l4-20 5-24 7-19 10-18 14-24 6-11 26-44 12-21 13-22 15-26 9-15 11-19 17-29 10-17 14-24 13-23 10-16 11-19 14-24 9-15 10-17 13-23 12-20 22-38 16-27 14-24 15-26 14-24 18-30 17-29 15-26 11-19 14-25 13-21 14-24 15-26 8-13 10-17 13-23 11-18 15-26 12-21 8-13 24-42 9-15 16-27 6-10 10-17 11-15 11-12 7-8 12-11 12-9 15-9 19-10 15-5 29-6 8-1z" fill="#1CC2DE"/>
<path transform="translate(1433,1168)" d="m0 0h27l26 4 23 6 16 6 16 8 15 10 20 14 10 8 8 11 5 5 11 18 39 66 14 24 10 17 9 16 17 29 9 16 8 16 8 19 9 36 2 12v22l-8 38-7 20-9 20-14 21-11 14-9 10-9 9-13 10-15 9-14 8-18 8-17 5-31 6-13 1-27-1-27-5-19-6-12-5-17-9-17-10-24-13-25-15-23-13-18-10-24-14-29-16-27-16-24-13-23-13-24-14-18-10-28-16-19-11-25-14-24-14-19-10-25-10-24-7-14-3-10-1h-30l-12 2-13 4-14 3-10 2 5-4 12-7 13-8 26-14 20-12 23-13 22-12 15-9 24-14 27-15 34-20 27-15 19-11 16-9 21-12 24-14 29-16 27-16 45-25 24-14 12-6 20-8 25-7z" fill="#000101"/>
<path transform="translate(870,378)" d="m0 0 2 1-14 10-10 8-12 11v-3l7-7 11-9 11-8z" fill="#fff"/>
</svg>
